<svg width="25" height="24" viewBox="0 0 25 24" fill="none" xmlns="http://www.w3.org/2000/svg">
<path d="M10.3285 10.0679C9.64449 10.0679 9.10449 10.6679 9.10449 11.3999C9.10449 12.1319 9.65649 12.7319 10.3285 12.7319C11.0125 12.7319 11.5525 12.1319 11.5525 11.3999C11.5645 10.6679 11.0125 10.0679 10.3285 10.0679ZM14.7085 10.0679C14.0245 10.0679 13.4845 10.6679 13.4845 11.3999C13.4845 12.1319 14.0365 12.7319 14.7085 12.7319C15.3925 12.7319 15.9325 12.1319 15.9325 11.3999C15.9325 10.6679 15.3925 10.0679 14.7085 10.0679Z" fill="white" fill-opacity="0.6"/>
<path d="M20.54 0H4.46C3.104 0 2 1.104 2 2.472V18.696C2 20.064 3.104 21.168 4.46 21.168H18.068L17.432 18.948L18.968 20.376L20.42 21.72L23 24V2.472C23 1.104 21.896 0 20.54 0ZM15.908 15.672C15.908 15.672 15.476 15.156 15.116 14.7C16.688 14.256 17.288 13.272 17.288 13.272C16.796 13.596 16.328 13.824 15.908 13.98C15.308 14.232 14.732 14.4 14.168 14.496C13.1403 14.6852 12.0862 14.6812 11.06 14.484C10.4575 14.3661 9.86705 14.1934 9.296 13.968C8.99499 13.8522 8.7023 13.7159 8.42 13.56C8.384 13.536 8.348 13.524 8.312 13.5C8.288 13.488 8.276 13.476 8.264 13.464C8.048 13.344 7.928 13.26 7.928 13.26C7.928 13.26 8.504 14.22 10.028 14.676C9.668 15.132 9.224 15.672 9.224 15.672C6.572 15.588 5.564 13.848 5.564 13.848C5.564 9.984 7.292 6.852 7.292 6.852C9.02 5.556 10.664 5.592 10.664 5.592L10.784 5.736C8.624 6.36 7.628 7.308 7.628 7.308C7.628 7.308 7.892 7.164 8.336 6.96C9.62 6.396 10.64 6.24 11.06 6.204C11.132 6.192 11.192 6.18 11.264 6.18C13.3449 5.89835 15.4612 6.29384 17.3 7.308C17.3 7.308 16.352 6.408 14.312 5.784L14.48 5.592C14.48 5.592 16.124 5.556 17.852 6.852C17.852 6.852 19.58 9.984 19.58 13.848C19.58 13.848 18.56 15.588 15.908 15.672Z" fill="white" fill-opacity="0.6"/>
</svg>
