<svg width="25" height="24" viewBox="0 0 25 24" fill="none" xmlns="http://www.w3.org/2000/svg">
<g clip-path="url(#clip0_1486_31370)">
<path d="M12.5 0C9.2435 0 8.834 0.015 7.5545 0.072C6.275 0.132 5.4035 0.333 4.64 0.63C3.83914 0.931229 3.11374 1.40374 2.5145 2.0145C1.90411 2.61404 1.43166 3.33936 1.13 4.14C0.833 4.902 0.6305 5.775 0.572 7.05C0.515 8.3325 0.5 8.7405 0.5 12.0015C0.5 15.2595 0.515 15.6675 0.572 16.947C0.632 18.225 0.833 19.0965 1.13 19.86C1.4375 20.649 1.847 21.318 2.5145 21.9855C3.1805 22.653 3.8495 23.064 4.6385 23.37C5.4035 23.667 6.2735 23.8695 7.5515 23.928C8.8325 23.985 9.2405 24 12.5 24C15.7595 24 16.166 23.985 17.447 23.928C18.7235 23.868 19.598 23.667 20.3615 23.37C21.1618 23.0686 21.8867 22.5961 22.4855 21.9855C23.153 21.318 23.5625 20.649 23.87 19.86C24.1655 19.0965 24.368 18.225 24.428 16.947C24.485 15.6675 24.5 15.2595 24.5 12C24.5 8.7405 24.485 8.3325 24.428 7.0515C24.368 5.775 24.1655 4.902 23.87 4.14C23.5684 3.33934 23.0959 2.61401 22.4855 2.0145C21.8864 1.40351 21.161 0.930968 20.36 0.63C19.595 0.333 18.722 0.1305 17.4455 0.072C16.1645 0.015 15.758 0 12.497 0H12.5015H12.5ZM11.4245 2.163H12.5015C15.7055 2.163 16.085 2.1735 17.3495 2.232C18.5195 2.2845 19.1555 2.481 19.5785 2.6445C20.138 2.862 20.5385 3.123 20.9585 3.543C21.3785 3.963 21.638 4.362 21.8555 4.923C22.0205 5.3445 22.2155 5.9805 22.268 7.1505C22.3265 8.415 22.3385 8.7945 22.3385 11.997C22.3385 15.1995 22.3265 15.5805 22.268 16.845C22.2155 18.015 22.019 18.6495 21.8555 19.0725C21.6631 19.5935 21.356 20.0647 20.957 20.451C20.537 20.871 20.138 21.1305 19.577 21.348C19.157 21.513 18.521 21.708 17.3495 21.762C16.085 21.819 15.7055 21.8325 12.5015 21.8325C9.2975 21.8325 8.9165 21.819 7.652 21.762C6.482 21.708 5.8475 21.513 5.4245 21.348C4.90325 21.1559 4.43169 20.8494 4.0445 20.451C3.64513 20.0641 3.33758 19.5925 3.1445 19.071C2.981 18.6495 2.7845 18.0135 2.732 16.8435C2.675 15.579 2.663 15.1995 2.663 11.994C2.663 8.79 2.675 8.412 2.732 7.1475C2.786 5.9775 2.981 5.3415 3.146 4.9185C3.3635 4.359 3.6245 3.9585 4.0445 3.5385C4.4645 3.1185 4.8635 2.859 5.4245 2.6415C5.8475 2.4765 6.482 2.2815 7.652 2.2275C8.759 2.1765 9.188 2.1615 11.4245 2.16V2.163ZM18.9065 4.155C18.7174 4.155 18.5301 4.19225 18.3554 4.26461C18.1807 4.33698 18.022 4.44305 17.8883 4.57677C17.7545 4.71048 17.6485 4.86923 17.5761 5.04394C17.5037 5.21864 17.4665 5.4059 17.4665 5.595C17.4665 5.7841 17.5037 5.97135 17.5761 6.14606C17.6485 6.32077 17.7545 6.47952 17.8883 6.61323C18.022 6.74695 18.1807 6.85302 18.3554 6.92539C18.5301 6.99775 18.7174 7.035 18.9065 7.035C19.2884 7.035 19.6547 6.88329 19.9247 6.61323C20.1948 6.34318 20.3465 5.97691 20.3465 5.595C20.3465 5.21309 20.1948 4.84682 19.9247 4.57677C19.6547 4.30671 19.2884 4.155 18.9065 4.155ZM12.5015 5.838C11.6841 5.82525 10.8723 5.97523 10.1135 6.27921C9.35459 6.58319 8.66377 7.03511 8.08123 7.60863C7.49868 8.18216 7.03605 8.86585 6.72026 9.61989C6.40448 10.3739 6.24185 11.1833 6.24185 12.0007C6.24185 12.8182 6.40448 13.6276 6.72026 14.3816C7.03605 15.1356 7.49868 15.8193 8.08123 16.3929C8.66377 16.9664 9.35459 17.4183 10.1135 17.7223C10.8723 18.0263 11.6841 18.1763 12.5015 18.1635C14.1193 18.1383 15.6623 17.4779 16.7975 16.3249C17.9326 15.1719 18.5689 13.6188 18.5689 12.0007C18.5689 10.3827 17.9326 8.82962 16.7975 7.67662C15.6623 6.52363 14.1193 5.86324 12.5015 5.838ZM12.5015 7.9995C13.5625 7.9995 14.58 8.42098 15.3303 9.17122C16.0805 9.92146 16.502 10.939 16.502 12C16.502 13.061 16.0805 14.0785 15.3303 14.8288C14.58 15.579 13.5625 16.0005 12.5015 16.0005C11.4405 16.0005 10.423 15.579 9.67272 14.8288C8.92248 14.0785 8.501 13.061 8.501 12C8.501 10.939 8.92248 9.92146 9.67272 9.17122C10.423 8.42098 11.4405 7.9995 12.5015 7.9995Z" fill="white" fill-opacity="0.6"/>
</g>
<defs>
<clipPath id="clip0_1486_31370">
<rect width="24" height="24" fill="white" transform="translate(0.5)"/>
</clipPath>
</defs>
</svg>
