<svg width="25" height="24" viewBox="0 0 25 24" fill="none" xmlns="http://www.w3.org/2000/svg">
<g clip-path="url(#clip0_1486_31373)">
<path d="M8.039 22.5001C17.096 22.5001 22.0505 14.9956 22.0505 8.49906C22.0505 8.28906 22.0505 8.07606 22.0415 7.86606C23.0061 7.16779 23.8386 6.30329 24.5 5.31306C23.599 5.71034 22.6441 5.97217 21.6665 6.09006C22.6963 5.47452 23.4676 4.50602 23.837 3.36456C22.8695 3.93775 21.8105 4.34012 20.7065 4.55406C19.9643 3.7636 18.9821 3.23994 17.9121 3.0642C16.8421 2.88846 15.7441 3.07045 14.788 3.58197C13.8319 4.09349 13.0712 4.90601 12.6237 5.89365C12.1761 6.8813 12.0668 7.98896 12.3125 9.04506C10.3546 8.94689 8.43922 8.43826 6.69056 7.55218C4.9419 6.66609 3.39903 5.42233 2.162 3.90156C1.53401 4.98619 1.34236 6.26916 1.62597 7.48996C1.90958 8.71076 2.64718 9.77786 3.689 10.4746C2.90831 10.448 2.14478 10.2384 1.46 9.86256V9.93006C1.46135 11.0663 1.85496 12.1672 2.57431 13.0467C3.29366 13.9262 4.29462 14.5304 5.408 14.7571C4.98539 14.8735 4.54884 14.9315 4.1105 14.9296C3.80148 14.9305 3.49307 14.9019 3.1895 14.8441C3.50418 15.8221 4.11691 16.6773 4.94187 17.2898C5.76683 17.9022 6.7627 18.2413 7.79 18.2596C6.04483 19.6303 3.8891 20.3737 1.67 20.3701C1.27898 20.3717 0.888235 20.3492 0.5 20.3026C2.75227 21.7385 5.36795 22.5009 8.039 22.5001Z" fill="white" fill-opacity="0.6"/>
</g>
<defs>
<clipPath id="clip0_1486_31373">
<rect width="24" height="24" fill="white" transform="translate(0.5)"/>
</clipPath>
</defs>
</svg>
