<svg width="25" height="24" viewBox="0 0 25 24" fill="none" xmlns="http://www.w3.org/2000/svg">
<g clip-path="url(#clip0_1486_31380)">
<path d="M12.5765 2.99854H12.71C13.943 3.00304 20.1905 3.04804 21.875 3.50104C22.3842 3.63929 22.8483 3.90877 23.2207 4.28255C23.5932 4.65633 23.861 5.12131 23.9975 5.63104C24.149 6.20104 24.2555 6.95554 24.3275 7.73404L24.3425 7.89004L24.3755 8.28004L24.3875 8.43604C24.485 9.80704 24.497 11.091 24.4985 11.3715V11.484C24.497 11.775 24.4835 13.146 24.3755 14.574L24.3635 14.7315L24.35 14.8875C24.275 15.7455 24.164 16.5975 23.9975 17.2245C23.8615 17.7345 23.5938 18.1997 23.2212 18.5735C22.8487 18.9474 22.3844 19.2167 21.875 19.3545C20.135 19.8225 13.5215 19.8555 12.605 19.857H12.392C11.9285 19.857 10.0115 19.848 8.0015 19.779L7.7465 19.77L7.616 19.764L7.3595 19.7535L7.103 19.743C5.438 19.6695 3.8525 19.551 3.122 19.353C2.61273 19.2153 2.1486 18.9462 1.77609 18.5726C1.40358 18.1991 1.13577 17.7342 0.9995 17.2245C0.833 16.599 0.722 15.7455 0.647 14.8875L0.635 14.73L0.623 14.574C0.548971 13.5576 0.50795 12.5391 0.5 11.52L0.5 11.3355C0.503 11.013 0.515 9.89854 0.596 8.66854L0.6065 8.51404L0.611 8.43604L0.623 8.28004L0.656 7.89004L0.671 7.73404C0.743 6.95554 0.8495 6.19954 1.001 5.63104C1.13704 5.12111 1.40474 4.6559 1.77727 4.28206C2.1498 3.90822 2.61405 3.63887 3.1235 3.50104C3.854 3.30604 5.4395 3.18604 7.1045 3.11104L7.3595 3.10054L7.6175 3.09154L7.7465 3.08704L8.003 3.07654C9.43056 3.0306 10.8587 3.00509 12.287 3.00004H12.5765V2.99854ZM10.1 7.81354V15.0405L16.3355 11.4285L10.1 7.81354Z" fill="white" fill-opacity="0.6"/>
</g>
<defs>
<clipPath id="clip0_1486_31380">
<rect width="24" height="24" fill="white" transform="translate(0.5)"/>
</clipPath>
</defs>
</svg>
