<svg width="25" height="24" viewBox="0 0 25 24" fill="none" xmlns="http://www.w3.org/2000/svg">
<path d="M13.0302 0.02025C14.339 0 15.6402 0.012 16.94 0C17.0187 1.53075 17.5692 3.09 18.6897 4.17225C19.808 5.2815 21.3897 5.78925 22.9287 5.961V9.98775C21.4865 9.9405 20.0375 9.6405 18.7287 9.0195C18.1587 8.7615 17.6277 8.42925 17.108 8.0895C17.1012 11.0115 17.12 13.9297 17.0892 16.8397C17.0112 18.2377 16.55 19.629 15.737 20.781C14.429 22.6987 12.1587 23.949 9.82698 23.988C8.39673 24.0697 6.96798 23.6798 5.74923 22.9613C3.72948 21.7703 2.30823 19.59 2.10123 17.25C2.07515 16.7544 2.07115 16.2579 2.08923 15.762C2.26923 13.8593 3.21048 12.039 4.67148 10.8007C6.32748 9.3585 8.64723 8.6715 10.8192 9.078C10.8395 10.5592 10.7802 12.039 10.7802 13.5203C9.78798 13.1993 8.62848 13.2892 7.76148 13.8915C7.12716 14.3094 6.6478 14.9242 6.39723 15.6412C6.19023 16.1483 6.24948 16.7115 6.26148 17.25C6.49923 18.891 8.07723 20.2702 9.76173 20.121C10.8785 20.109 11.9487 19.461 12.5307 18.5123C12.719 18.18 12.9297 17.8403 12.941 17.4495C13.0392 15.6608 13.0002 13.8795 13.0122 12.0907C13.0205 8.0595 13.0002 4.0395 13.031 0.021L13.0302 0.02025Z" fill="white" fill-opacity="0.6"/>
</svg>
