<svg width="42" height="41" viewBox="0 0 42 41" fill="none" xmlns="http://www.w3.org/2000/svg">
<g clip-path="url(#clip0_1457_30051)">
<path fill-rule="evenodd" clip-rule="evenodd" d="M5.15807 34.2136C15.6014 34.8125 25.9986 34.8125 36.4419 34.2136C38.4662 34.0754 40.3524 32.3248 40.5824 30.2978C41.2725 23.5258 41.2725 16.7998 40.5824 10.0277C40.3524 8.00075 38.4662 6.25015 36.4419 6.11195C25.9986 5.51306 15.6014 5.51306 5.15807 6.11195C3.13382 6.25015 1.24759 8.00075 1.01756 10.0277C0.327479 16.7998 0.327479 23.5258 1.01756 30.2978C1.24759 32.3248 3.13382 34.0754 5.15807 34.2136ZM27.5641 19.7023L16.6607 13.9898V25.4147L27.5641 19.7023Z" fill="white"/>
</g>
<defs>
<clipPath id="clip0_1457_30051">
<rect width="41" height="40" fill="white" transform="translate(0.5 0.662781)"/>
</clipPath>
</defs>
</svg>
