<svg width="42" height="42" viewBox="0 0 42 42" fill="none" xmlns="http://www.w3.org/2000/svg">
<path d="M21 0C32.598 0 42 9.40197 42 21C42 32.598 32.598 42 21 42C9.40197 42 0 32.598 0 21C0 9.40197 9.40197 0 21 0Z" fill="url(#paint0_radial_673_27314)"/>
<path d="M20.8955 0.247437C32.2547 0.247437 41.463 9.45574 41.463 20.8149C41.463 32.174 32.2547 41.3823 20.8955 41.3823C9.53643 41.3823 0.328125 32.174 0.328125 20.8149C0.328125 9.45574 9.53643 0.247437 20.8955 0.247437Z" fill="url(#paint1_radial_673_27314)"/>
<path d="M2.11328 20.8147C2.11328 31.1894 10.5234 39.5993 20.8979 39.5993C31.2723 39.5993 39.6826 31.1894 39.6826 20.8147C39.6826 10.4403 31.2723 2.03015 20.8979 2.03015C10.5234 2.03015 2.11328 10.4403 2.11328 20.8147Z" fill="url(#paint2_radial_673_27314)"/>
<path d="M28.2072 14.8248C27.6453 15.8034 26.8927 16.6591 25.9938 17.3413C25.095 18.0235 24.0683 18.5182 22.9747 18.7962C21.8811 19.0741 20.7428 19.1296 19.6273 18.9593C18.5118 18.789 17.4419 18.3964 16.481 17.8048C15.7737 17.3672 15.1337 16.829 14.5814 16.2072C13.1274 14.5681 12.3703 12.4265 12.4709 10.2378C12.4829 9.9929 12.5034 9.74873 12.5354 9.50565C12.5671 9.26609 12.6093 9.0276 12.6614 8.79197C12.7149 8.55008 12.779 8.31093 12.8537 8.07453C12.9262 7.84444 13.0089 7.61783 13.1017 7.39469C13.1979 7.16269 13.3052 6.9356 13.4209 6.71279C13.5428 6.47815 13.6778 6.24987 13.8219 6.02826C13.9549 5.82386 14.0965 5.6256 14.2467 5.43347C14.4098 5.22407 14.583 5.02205 14.7658 4.82964C14.9502 4.63542 15.1429 4.44986 15.3439 4.27294C15.5486 4.09264 15.7632 3.92401 15.9843 3.76446C16.0982 3.68221 16.2144 3.60309 16.3326 3.5271C13.9302 4.7546 12.1029 6.8727 11.2409 9.42911C10.3788 11.9855 10.5504 14.7776 11.7189 17.2093C11.742 17.2573 11.7655 17.3052 11.7894 17.3529C11.8003 17.3745 11.8112 17.3962 11.8222 17.4177C11.8273 17.4314 11.834 17.4444 11.8421 17.4565C11.8558 17.4717 11.8592 17.4692 11.8801 17.4688C11.9892 17.4668 12.0983 17.4673 12.2073 17.4697C12.4088 17.474 12.6099 17.4855 12.8107 17.5041C14.6677 17.6797 16.4143 18.4653 17.7776 19.7383C19.1409 21.0114 20.0442 22.7001 20.3463 24.5408C20.4827 25.3829 20.4919 26.2408 20.3734 27.0856C20.1483 28.6789 19.4707 30.1741 18.421 31.3937C17.8191 32.0924 17.1081 32.6893 16.3156 33.161C14.7335 34.0952 12.8902 34.4886 11.0645 34.2816C10.7344 34.2438 10.4067 34.1869 10.0831 34.1111C9.87359 34.0619 9.66611 34.0041 9.46094 33.9389C10.3827 34.3474 11.3596 34.6178 12.3602 34.7414C13.2938 34.8566 14.2386 34.8453 15.1691 34.7077C16.8332 34.4597 18.4113 33.8078 19.7653 32.8091C20.7591 32.0767 21.6146 31.1734 22.2918 30.1413C22.3212 30.0966 22.3502 30.0516 22.3789 30.0064C22.39 29.9888 22.4148 29.9612 22.4116 29.9426C22.4004 29.9133 22.3855 29.8857 22.3672 29.8603C22.3107 29.7543 22.2565 29.6472 22.2046 29.5389C22.1003 29.3213 22.0056 29.0995 21.9203 28.8735C21.7476 28.4155 21.6154 27.9433 21.5252 27.4622C21.3321 26.4281 21.3327 25.3671 21.527 24.3331C21.6923 23.4549 21.9973 22.6087 22.4303 21.8269C23.1526 20.5149 24.2119 19.4193 25.4988 18.653C26.7856 17.8868 28.2536 17.4777 29.7513 17.4679C29.9582 17.4665 30.1649 17.4724 30.3715 17.4858C30.5708 17.4991 30.7694 17.5191 30.9674 17.5458C31.1634 17.5726 31.3584 17.6064 31.5522 17.6471C31.742 17.6871 31.9303 17.7335 32.1171 17.7862C32.3001 17.8381 32.4811 17.8962 32.6603 17.9604C32.8419 18.0256 33.0211 18.097 33.1978 18.1746C33.378 18.2533 33.5551 18.3385 33.7291 18.4303C33.903 18.5218 34.0736 18.6191 34.2409 18.7224C34.398 18.8196 34.5524 18.9215 34.7025 19.0291C34.8573 19.1402 35.0085 19.2559 35.1561 19.3763C35.3085 19.5003 35.4556 19.6309 35.5986 19.7655C35.7509 19.9089 35.8977 20.0578 36.0388 20.2123C36.1798 20.3659 36.3147 20.5248 36.4436 20.689C36.5874 20.8716 36.7244 21.06 36.8522 21.2542C36.9835 21.4537 37.1077 21.6584 37.2222 21.8681C37.3818 22.1607 37.524 22.4625 37.6481 22.7718C37.7817 23.1081 37.8943 23.4524 37.9853 23.8026C37.7392 21.9295 36.9831 20.1599 35.7995 18.6873C34.9294 17.603 33.8505 16.7044 32.6268 16.0446C31.3718 15.3682 29.9898 14.9605 28.5686 14.8474C28.4483 14.8378 28.3278 14.8302 28.2072 14.8248Z" fill="url(#paint3_radial_673_27314)"/>
<defs>
<radialGradient id="paint0_radial_673_27314" cx="0" cy="0" r="1" gradientUnits="userSpaceOnUse" gradientTransform="translate(21 21) scale(21)">
<stop offset="0.91341"/>
<stop offset="1" stop-opacity="0"/>
</radialGradient>
<radialGradient id="paint1_radial_673_27314" cx="0" cy="0" r="1" gradientUnits="userSpaceOnUse" gradientTransform="translate(20.8955 20.8149) scale(20.5674)">
<stop offset="0.99" stop-color="white"/>
<stop offset="0.99505" stop-color="#FDFDFD"/>
<stop offset="0.99687" stop-color="#F6F6F6"/>
<stop offset="0.99817" stop-color="#EBEBEB"/>
<stop offset="0.99921" stop-color="#DADADA"/>
<stop offset="1" stop-color="#C7C7C7"/>
</radialGradient>
<radialGradient id="paint2_radial_673_27314" cx="0" cy="0" r="1" gradientUnits="userSpaceOnUse" gradientTransform="translate(20.898 20.8147) scale(18.7846)">
<stop offset="0.99"/>
<stop offset="1" stop-opacity="0"/>
</radialGradient>
<radialGradient id="paint3_radial_673_27314" cx="0" cy="0" r="1" gradientUnits="userSpaceOnUse" gradientTransform="translate(23.7231 19.1735) scale(14.9703 16.4234)">
<stop stop-color="#C2C0C2"/>
<stop offset="1" stop-color="#EBEBEB"/>
</radialGradient>
</defs>
</svg>
