<svg width="40" height="40" viewBox="0 0 40 40" fill="none" xmlns="http://www.w3.org/2000/svg">
<path d="M9.83929 0H30.1429C35.5893 0 40 4.41071 40 9.83929V30.1429C40 35.5893 35.5893 39.9821 30.1607 39.9821H9.83929C4.41071 40 0 35.5893 0 30.1607V9.83929C0 4.41071 4.41071 0 9.83929 0Z" fill="#80F5D2"/>
<path fill-rule="evenodd" clip-rule="evenodd" d="M11.8223 21.6072C11.8223 18.8036 11.8223 17.4107 12.3758 16.3393C12.858 15.3929 13.6258 14.625 14.5544 14.1608C15.6258 13.6072 17.0187 13.6072 19.8223 13.6072H23.8223C26.6258 13.6072 28.0187 13.6072 29.0901 14.1608C30.0366 14.6429 30.8044 15.4107 31.2687 16.3393C31.8223 17.4107 31.8223 18.8036 31.8223 21.6072V22.75C31.8223 25.5536 31.8223 26.9465 31.2687 28.0179C30.7866 28.9643 30.0187 29.7322 29.0901 30.1965C28.0187 30.75 26.6258 30.75 23.8223 30.75H16.3937C14.7866 30.75 14.0008 30.75 13.3758 30.4465C12.8401 30.1786 12.3937 29.7322 12.1258 29.1965C11.8223 28.5893 11.8223 27.7858 11.8223 26.1786V21.6072ZM18.9651 22.1786C18.9651 21.3929 19.608 20.75 20.3937 20.75C21.1794 20.75 21.8223 21.3929 21.8223 22.1786V25.0357C21.8223 25.8215 21.1794 26.4643 20.3937 26.4643C19.608 26.4643 18.9651 25.8215 18.9651 25.0357V22.1786ZM26.108 20.75C25.3223 20.75 24.6794 21.3929 24.6794 22.1786V25.0357C24.6794 25.8215 25.3223 26.4643 26.108 26.4643C26.8937 26.4643 27.5366 25.8215 27.5366 25.0357V22.1786C27.5366 21.3929 26.8937 20.75 26.108 20.75Z" fill="#09161D"/>
<path fill-rule="evenodd" clip-rule="evenodd" d="M16.8032 9.28582C16.8925 10.0715 16.339 10.7858 15.5532 10.8751C15.1247 10.9287 14.7675 11.0001 14.464 11.0894C11.9997 11.8572 10.0711 13.7858 9.30325 16.2501C9.21396 16.5537 9.14253 16.9108 9.08896 17.3394C8.99968 18.1251 8.28539 18.6787 7.49968 18.5894C6.71396 18.5001 6.16039 17.7858 6.24968 17.0001C6.32111 16.4465 6.42825 15.9108 6.57111 15.4108C7.62468 12.0537 10.2497 9.41082 13.6068 8.3751C14.1068 8.21439 14.6247 8.10725 15.1961 8.05367C15.9997 7.94653 16.714 8.5001 16.8032 9.28582Z" fill="#09161D"/>
</svg>
