<svg width="42" height="39" viewBox="0 0 42 39" fill="none" xmlns="http://www.w3.org/2000/svg">
<g opacity="0.4">
<path opacity="0.5" d="M12.8365 38.4772H8.19383V6.34746L0.232422 9.905V5.52532L12.105 0.338623H12.8365V38.4772Z" fill="#805ACB"/>
<path opacity="0.5" d="M37.7283 22.2883C37.7283 27.8861 36.9112 32.0703 35.277 34.841C33.6428 37.6116 31.0797 38.995 27.5876 38.9909C24.1963 38.9909 21.6675 37.661 20.001 35.0012C18.3346 32.3413 17.4651 28.3475 17.3926 23.0198V16.5031C17.3926 10.9578 18.2137 6.82089 19.856 4.09254C21.4982 1.36418 24.0573 0 27.5332 0C30.9588 0 33.4927 1.29466 35.135 3.88398C36.7772 6.4733 37.6417 10.3925 37.7283 15.6417V22.2883ZM33.1129 15.6931C33.1129 11.6791 32.6696 8.72006 31.7829 6.81586C30.8963 4.91165 29.4798 3.96055 27.5332 3.96257C25.6411 3.96257 24.2507 4.89654 23.3621 6.76447C22.4735 8.63241 22.0181 11.4525 21.9959 15.2246V23.0439C21.9959 27.0438 22.4564 30.0462 23.3772 32.0512C24.2981 34.0561 25.7086 35.0636 27.6088 35.0737C29.4848 35.0737 30.8661 34.1266 31.7527 32.2325C32.6393 30.3384 33.0998 27.4448 33.134 23.5517L33.1129 15.6931Z" fill="#805ACB"/>
</g>
<g opacity="0.2">
<path opacity="0.4" d="M17.0517 38.4772H12.4121V6.34746L4.43555 9.905V5.52532L16.3202 0.338623H17.0517V38.4772Z" fill="#805ACB"/>
<path opacity="0.4" d="M41.9421 22.2883C41.9421 27.8861 41.125 32.0703 39.4908 34.841C37.8566 37.6116 35.2935 38.995 31.8014 38.9909C28.4121 38.9909 25.8833 37.661 24.2148 35.0012C22.5464 32.3413 21.6779 28.3475 21.6094 23.0198V16.5031C21.6094 10.9578 22.4305 6.82089 24.0728 4.09254C25.715 1.36418 28.2741 0 31.75 0C35.1756 0 37.7085 1.29466 39.3487 3.88398C40.989 6.4733 41.8534 10.3925 41.9421 15.6417V22.2883ZM37.3266 15.6931C37.3266 11.6791 36.8833 8.72006 35.9967 6.81586C35.1101 4.91165 33.6945 3.96055 31.75 3.96257C29.8539 3.96257 28.4635 4.89654 27.5789 6.76447C26.6943 8.63241 26.2339 11.4535 26.1976 15.2276V23.0439C26.1976 27.0438 26.658 30.0462 27.5789 32.0512C28.4998 34.0561 29.9103 35.0636 31.8105 35.0737C33.6865 35.0737 35.0678 34.1266 35.9544 32.2325C36.841 30.3384 37.3015 27.4448 37.3357 23.5517L37.3266 15.6931Z" fill="#805ACB"/>
</g>
</svg>
