<svg width="38" height="39" viewBox="0 0 38 39" fill="none" xmlns="http://www.w3.org/2000/svg">
<path d="M12.6161 38.4772H7.97652V6.34746L0 9.905V5.52532L11.8877 0.338623H12.6161V38.4772Z" fill="#805ACB"/>
<path d="M37.5065 22.2883C37.5065 27.8861 36.6905 32.0703 35.0583 34.841C33.4261 37.6116 30.862 38.995 27.3659 38.9909C23.9766 38.9909 21.4477 37.661 19.7793 35.0012C18.1108 32.3413 17.2423 28.3475 17.1738 23.0198V16.5031C17.1738 10.9578 17.995 6.82089 19.6372 4.09254C21.2795 1.36418 23.8386 0 27.3145 0C30.7401 0 33.273 1.29466 34.9132 3.88398C36.5534 6.4733 37.4179 10.3925 37.5065 15.6417V22.2883ZM32.8941 15.6931C32.8941 11.6791 32.4508 8.72006 31.5642 6.81586C30.6776 4.91165 29.261 3.96055 27.3145 3.96257C25.4183 3.96257 24.028 4.89654 23.1434 6.76447C22.2588 8.63241 21.7983 11.4525 21.7621 15.2246V23.0439C21.7621 27.0438 22.2225 30.0462 23.1434 32.0512C24.0642 34.0561 25.4748 35.0636 27.3749 35.0737C29.2509 35.0737 30.6333 34.1266 31.5219 32.2325C32.4105 30.3384 32.871 27.4448 32.9032 23.5517L32.8941 15.6931Z" fill="#805ACB"/>
</svg>
