<svg width="50" height="39" viewBox="0 0 50 39" fill="none" xmlns="http://www.w3.org/2000/svg">
<g opacity="0.4">
<path opacity="0.5" d="M21.7307 38.486H0.603859V35.0093L11.378 20.6791C13.0031 18.4721 14.1467 16.6581 14.7787 15.2372C15.4107 13.8163 15.7117 12.3349 15.7117 10.7326C15.7117 8.70698 15.2302 7.07442 14.2972 5.83488C13.3643 4.59535 12.1303 3.96047 10.6256 3.96047C8.69949 3.96047 7.22482 4.62558 6.17148 5.95581C5.11815 7.28605 4.60653 9.1907 4.60653 11.7H0.00195312C0.00195312 8.19302 0.965002 5.3814 2.861 3.23488C4.75701 1.08837 7.3452 0 10.6256 0C13.6351 0 16.0126 0.937209 17.7281 2.7814C19.4435 4.62558 20.3163 7.10465 20.3163 10.1884C20.3163 13.9372 18.3601 18.3814 14.4778 23.5209L6.0812 34.586H21.7307V38.486Z" fill="#805ACB"/>
<path opacity="0.5" d="M44.7768 22.2814C44.7768 27.8744 43.9642 32.0767 42.339 34.8279C40.7139 37.6093 38.1558 39 34.6948 39C31.3242 39 28.7962 37.6698 27.1409 35.0093C25.4857 32.3488 24.6129 28.3581 24.5527 23.007V16.507C24.5527 10.9744 25.3653 6.83256 27.0205 4.0814C28.6156 1.36047 31.1737 0 34.6347 0C38.0354 0 40.5634 1.3 42.1886 3.9C43.8137 6.5 44.6865 10.4 44.7768 15.6605V22.2814ZM40.2023 15.6907C40.2023 11.6698 39.7508 8.70698 38.8781 6.80233C38.0053 4.89767 36.5908 3.96047 34.6347 3.96047C32.7386 3.96047 31.3543 4.89767 30.4815 6.77209C29.6087 8.64651 29.1272 11.4581 29.0971 15.2372V23.0674C29.0971 27.0581 29.5486 30.0814 30.4815 32.0767C31.3844 34.0721 32.7988 35.1 34.6948 35.1C36.5607 35.1 37.9451 34.1628 38.8179 32.2581C39.6907 30.3535 40.1722 27.4814 40.2023 23.5814V15.6907Z" fill="#805ACB"/>
</g>
<g opacity="0.2">
<path opacity="0.4" d="M26.7268 38.486H5.59995V35.0093L16.3741 20.6791C17.9992 18.4721 19.1428 16.6581 19.7748 15.2372C20.4068 13.8163 20.7078 12.3349 20.7078 10.7326C20.7078 8.70698 20.2263 7.07442 19.2933 5.83488C18.3603 4.59535 17.1264 3.96047 15.6217 3.96047C13.6956 3.96047 12.2209 4.62558 11.1676 5.95581C10.1142 7.28605 9.60262 9.1907 9.60262 11.7H4.99805C4.99805 8.19302 5.9611 5.3814 7.8571 3.23488C9.7531 1.08837 12.3413 0 15.6217 0C18.6312 0 21.0087 0.937209 22.7242 2.7814C24.4396 4.62558 25.3124 7.10465 25.3124 10.1884C25.3124 13.9372 23.3562 18.3814 19.4739 23.5209L11.0773 34.586H26.7268V38.486Z" fill="#805ACB"/>
<path opacity="0.4" d="M49.7728 22.2814C49.7728 27.8744 48.9603 32.0767 47.3351 34.8279C45.71 37.6093 43.1519 39 39.6909 39C36.3203 39 33.7923 37.6698 32.137 35.0093C30.4818 32.3488 29.609 28.3581 29.5488 23.007V16.507C29.5488 10.9744 30.3614 6.83256 32.0166 4.0814C33.6117 1.36047 36.1698 0 39.6307 0C43.0315 0 45.5595 1.3 47.1847 3.9C48.8098 6.5 49.6826 10.4 49.7728 15.6605V22.2814ZM45.1984 15.6907C45.1984 11.6698 44.7469 8.70698 43.8742 6.80233C43.0014 4.89767 41.5869 3.96047 39.6307 3.96047C37.7347 3.96047 36.3504 4.89767 35.4776 6.77209C34.6048 8.64651 34.1233 11.4581 34.0932 15.2372V23.0674C34.0932 27.0581 34.5446 30.0814 35.4776 32.0767C36.3805 34.0721 37.7949 35.1 39.6909 35.1C41.5568 35.1 42.9412 34.1628 43.814 32.2581C44.6867 30.3535 45.1683 27.4814 45.1984 23.5814V15.6907Z" fill="#805ACB"/>
</g>
</svg>
