<svg width="45" height="39" viewBox="0 0 45 39" fill="none" xmlns="http://www.w3.org/2000/svg">
<path d="M21.7288 38.486H0.601905V35.0093L11.376 20.6791C13.0012 18.4721 14.1448 16.6581 14.7768 15.2372C15.4088 13.8163 15.7097 12.3349 15.7097 10.7326C15.7097 8.70698 15.2282 7.07442 14.2953 5.83488C13.3623 4.59535 12.1284 3.96047 10.6236 3.96047C8.69753 3.96047 7.22287 4.62558 6.16953 5.95581C5.1162 7.28605 4.60458 9.1907 4.60458 11.7H0C0 8.19302 0.963049 5.3814 2.85905 3.23488C4.75505 1.08837 7.34325 0 10.6236 0C13.6332 0 16.0107 0.937209 17.7261 2.7814C19.4415 4.62558 20.3143 7.10465 20.3143 10.1884C20.3143 13.9372 18.3581 18.3814 14.4758 23.5209L6.07925 34.586H21.7288V38.486Z" fill="#805ACB"/>
<path d="M44.7748 22.2814C44.7748 27.8744 43.9622 32.0767 42.3371 34.8279C40.7119 37.6093 38.1538 39 34.6929 39C31.3222 39 28.7942 37.6698 27.139 35.0093C25.4837 32.3488 24.611 28.3581 24.5508 23.007V16.507C24.5508 10.9744 25.3634 6.83256 27.0186 4.0814C28.6136 1.36047 31.1717 0 34.6327 0C38.0335 0 40.5615 1.3 42.1866 3.9C43.8118 6.5 44.6845 10.4 44.7748 15.6605V22.2814ZM40.2003 15.6907C40.2003 11.6698 39.7489 8.70698 38.8761 6.80233C38.0034 4.89767 36.5889 3.96047 34.6327 3.96047C32.7367 3.96047 31.3523 4.89767 30.4796 6.77209C29.6068 8.64651 29.1253 11.4581 29.0952 15.2372V23.0674C29.0952 27.0581 29.5466 30.0814 30.4796 32.0767C31.3824 34.0721 32.7969 35.1 34.6929 35.1C36.5588 35.1 37.9432 34.1628 38.8159 32.2581C39.6887 30.3535 40.1702 27.4814 40.2003 23.5814V15.6907Z" fill="#805ACB"/>
</svg>
