<svg width="25" height="39" viewBox="0 0 25 39" fill="none" xmlns="http://www.w3.org/2000/svg">
<g opacity="0.4">
<path opacity="0.4" d="M5.33299 19.1844L6.9996 0H23.724V4.51885H10.9364L10.0387 15.0118C11.5301 13.9328 13.3234 13.3508 15.1642 13.3482C18.1584 13.3482 20.5071 14.5104 22.2105 16.8346C23.9139 19.1589 24.7676 22.2859 24.7717 26.2155C24.7717 30.1941 23.8424 33.3211 21.9838 35.5963C20.1252 37.8716 17.5722 39.0071 14.3247 39.0031C11.4327 39.0031 9.08389 38.0605 7.2784 36.1753C5.4729 34.2902 4.43739 31.682 4.17188 28.3508H8.55899C8.82246 30.5526 9.45153 32.213 10.4462 33.3323C10.9317 33.883 11.5333 34.3192 12.2077 34.6095C12.8821 34.8998 13.6124 35.037 14.3462 35.0112C16.1599 35.0112 17.5773 34.2228 18.5985 32.646C19.6197 31.0693 20.1303 28.9421 20.1303 26.2645C20.1303 23.7462 19.5799 21.6946 18.479 20.1097C18.0036 19.3644 17.3443 18.7539 16.5647 18.337C15.7852 17.9201 14.9114 17.7108 14.0276 17.7292C12.4774 17.7292 11.2356 18.1377 10.3022 18.9547L9.07675 20.1801L5.33299 19.1844Z" fill="#805ACB"/>
</g>
<g opacity="0.5">
<path opacity="0.5" d="M1.33299 19.1844L2.9996 0H19.724V4.51885H6.93637L6.03873 15.0118C7.53014 13.9328 9.3234 13.3508 11.1642 13.3482C14.1584 13.3482 16.5071 14.5104 18.2105 16.8346C19.9139 19.1589 20.7676 22.2859 20.7717 26.2155C20.7717 30.1941 19.8424 33.3211 17.9838 35.5963C16.1252 37.8716 13.5722 39.0071 10.3247 39.0031C7.43268 39.0031 5.08389 38.0605 3.27839 36.1753C1.4729 34.2902 0.43739 31.682 0.171875 28.3508H4.55899C4.82246 30.5526 5.45153 32.213 6.44619 33.3323C6.93173 33.883 7.53334 34.3192 8.20772 34.6095C8.88209 34.8998 9.61244 35.037 10.3462 35.0112C12.1599 35.0112 13.5773 34.2228 14.5985 32.646C15.6197 31.0693 16.1303 28.9421 16.1303 26.2645C16.1303 23.7462 15.5799 21.6946 14.479 20.1097C14.0035 19.3644 13.3443 18.7539 12.5647 18.337C11.7852 17.9201 10.9114 17.7108 10.0276 17.7292C8.47737 17.7292 7.23558 18.1377 6.3022 18.9547L5.07675 20.1801L1.33299 19.1844Z" fill="#805ACB"/>
</g>
</svg>
