<svg width="21" height="39" viewBox="0 0 21 39" fill="none" xmlns="http://www.w3.org/2000/svg">
<path d="M1.16112 19.1844L2.82773 0H19.5521V4.51885H6.76449L5.86685 15.0118C7.35826 13.9328 9.15152 13.3508 10.9923 13.3482C13.9844 13.3482 16.3332 14.5104 18.0386 16.8346C19.7441 19.1589 20.5978 22.2859 20.5998 26.2155C20.5998 30.1941 19.6705 33.3211 17.8119 35.5963C15.9533 37.8716 13.4003 39.0071 10.1529 39.0031C7.2608 39.0031 4.91202 38.0605 3.10652 36.1753C1.30102 34.2902 0.265515 31.682 0 28.3508H4.38712C4.65059 30.5526 5.27965 32.213 6.27431 33.3323C6.75985 33.883 7.36147 34.3192 8.03584 34.6095C8.71021 34.8998 9.44056 35.037 10.1743 35.0112C11.988 35.0112 13.4054 34.2228 14.4266 32.646C15.4478 31.0693 15.9584 28.9421 15.9584 26.2645C15.9584 23.7462 15.408 21.6946 14.3071 20.1097C13.8317 19.3644 13.1725 18.7539 12.3929 18.337C11.6133 17.9201 10.7396 17.7108 9.85569 17.7292C8.3055 17.7292 7.06371 18.1377 6.13032 18.9547L4.88955 20.1801L1.16112 19.1844Z" fill="#805ACB"/>
</svg>
