<svg width="231" height="52" viewBox="0 0 231 52" fill="none" xmlns="http://www.w3.org/2000/svg">
<path d="M18.1765 47.1983C11.9575 48.589 6.43041 47.1204 3.66684 45.843C3.96434 42.8458 5.49846 37.407 9.88218 32.8316C13.929 28.6065 18.603 26.3276 24.4133 25.7756C25.0298 26.862 26.1948 27.6015 27.5461 27.6015C29.539 27.6015 31.152 26.0056 31.152 24.0417C31.152 22.0743 29.5354 20.4819 27.5461 20.4819C26.2414 20.4819 25.1087 21.1719 24.4743 22.1946C17.6281 22.7678 11.9755 25.4607 7.2584 30.3864C1.53054 36.3666 0 43.5783 0 46.894C0 47.584 0.397868 48.182 0.97854 48.4757C3.16861 49.7284 7.59534 51.3243 13.0221 51.3243C14.9003 51.3243 16.9004 51.1332 18.9686 50.6696C21.5888 50.0858 23.9438 49.2224 26.0944 48.0652C25.0227 47.3257 24.0226 46.487 23.062 45.5882C21.5601 46.2712 19.94 46.802 18.1765 47.1983Z" fill="white"/>
<path d="M19.0976 16.2957C20.983 10.2766 25.0334 6.28859 27.5281 4.56175C30.0085 6.31336 34.0159 10.3403 35.8439 16.3736C37.5322 21.9469 37.1988 27.0814 34.7793 32.3291C33.5176 32.315 32.2846 32.9413 31.6107 34.0949C30.6143 35.8005 31.2093 37.9767 32.9334 38.9569C34.6611 39.9406 36.8655 39.3532 37.8583 37.6512C38.5107 36.5365 38.4713 35.2237 37.887 34.1692C40.8011 28.0297 41.2599 21.8478 39.2957 15.3545C36.9156 7.46694 31.3491 2.56245 28.4385 0.906385C27.8399 0.56668 27.1266 0.602066 26.5782 0.941771C23.6319 2.61199 18.094 7.44925 15.6494 15.2448C14.8142 17.9058 14.3985 20.4713 14.377 23.0084C15.5562 22.4529 16.7785 21.9823 18.0474 21.6001C18.1872 19.8697 18.5313 18.111 19.0976 16.2957Z" fill="white"/>
<path d="M48.1529 30.6023C46.3142 28.5322 44.3392 26.8584 42.1885 25.5209C42.0666 26.8124 41.8516 28.1005 41.5326 29.3815C42.909 30.3829 44.2065 31.5648 45.4431 32.9519C49.6512 37.683 50.981 43.1749 51.1674 46.1827C48.3573 47.354 42.7835 48.6208 36.6219 47.0072C30.9263 45.5139 26.6681 42.5486 23.3991 37.7715C24.0694 36.717 24.1733 35.3546 23.5281 34.1798C22.5783 32.453 20.3846 31.8125 18.6354 32.7502C16.8863 33.6879 16.2375 35.8536 17.1874 37.5804C17.811 38.7127 18.9652 39.3638 20.1803 39.424C23.9583 45.0858 29.0553 48.7057 35.6936 50.4432C38.1166 51.0801 40.4573 51.3314 42.6258 51.3314C47.6619 51.3314 51.7732 49.9655 53.8414 48.8579C53.8916 48.8331 53.9417 48.8013 53.9919 48.7694C54.5224 48.4191 54.8092 47.8352 54.7948 47.2443C54.8844 43.8897 53.5941 36.7205 48.1529 30.6023Z" fill="white"/>
<path d="M85.388 31.6674C85.388 36.3596 81.524 40.1423 76.8034 40.1423C72.0505 40.1423 68.2188 36.3596 68.1865 31.6993V17.8457H72.6204V31.6674C72.6204 32.7608 73.0649 33.7941 73.857 34.5761C74.6492 35.3582 75.6958 35.7651 76.8034 35.7651C77.911 35.7651 78.9254 35.3582 79.7175 34.5761C80.5097 33.7941 80.9219 32.7927 80.9541 31.6993H80.9219V17.8457H85.3558V31.6674H85.388Z" fill="white"/>
<path d="M108.772 39.7673L96.291 26.9752V39.7673H91.8535V17.8457H93.2478L105.506 30.1034V17.8457H109.94V39.7673H108.772Z" fill="white"/>
<path d="M130.311 23.1606C126.002 20.4076 119.507 22.973 119.507 28.8507C119.507 35.0114 126.382 37.4813 130.562 34.3532L133.411 37.5733C131.415 39.201 128.848 40.1989 126.063 40.1989C119.726 40.1989 114.564 35.0998 114.564 28.8471C114.564 22.5909 119.73 17.4953 126.063 17.4953C128.723 17.4953 131.196 18.4012 133.16 19.9051L130.311 23.1606Z" fill="white"/>
<path d="M148.265 17.8457L158.749 39.7673H153.839L147.501 26.4444L140.626 39.7673H135.651L146.96 17.8457H148.265Z" fill="white"/>
<path d="M180.513 39.7673L168.033 26.9752V39.7673H163.599V17.8457H164.993L177.252 30.1034V17.8457H181.685V39.7673H180.513Z" fill="white"/>
<path d="M205.426 39.7673L192.945 26.9752V39.7673H188.511V17.8457H189.905L202.164 30.1034V17.8457H206.598V39.7673H205.426Z" fill="white"/>
<path d="M230.431 17.8457L223.208 31.7311V39.7673H218.774V31.7311L211.52 17.8457H216.43L220.993 26.1012L225.524 17.8457H230.431Z" fill="white"/>
</svg>
