<svg width="371" height="81" viewBox="0 0 371 81" fill="none" xmlns="http://www.w3.org/2000/svg">
<path d="M29.6175 74.2647C19.6278 76.48 10.7493 74.1407 6.3101 72.1058C6.78799 67.3313 9.25231 58.6674 16.294 51.3789C22.7945 44.6484 30.3026 41.0182 39.6359 40.1389C40.6263 41.8694 42.4975 43.0475 44.6682 43.0475C47.8695 43.0475 50.4605 40.5053 50.4605 37.3768C50.4605 34.2427 47.8638 31.7061 44.6682 31.7061C42.5724 31.7061 40.7529 32.8053 39.7338 34.4343C28.7365 35.3475 19.6566 39.6372 12.0794 47.4838C2.87848 57.0101 0.419922 68.4981 0.419922 73.7799C0.419922 74.8791 1.05903 75.8317 1.99179 76.2996C5.50977 78.2951 12.6206 80.8373 21.3378 80.8373C24.3549 80.8373 27.5677 80.5329 30.8899 79.7945C35.0988 78.8644 38.8817 77.489 42.3363 75.6457C40.6148 74.4676 39.0084 73.1317 37.4653 71.6999C35.0528 72.7878 32.4503 73.6334 29.6175 74.2647Z" fill="#FF5722"/>
<path d="M31.0976 25.0377C34.1262 15.4493 40.6324 9.09655 44.6398 6.34574C48.6242 9.13601 55.0613 15.5508 57.9978 25.1617C60.7097 34.0399 60.1742 42.219 56.2877 50.5785C54.261 50.556 52.2803 51.5537 51.1979 53.3914C49.5972 56.1083 50.553 59.575 53.3225 61.1365C56.0977 62.7035 59.6387 61.7678 61.2336 59.0564C62.2816 57.2808 62.2182 55.1895 61.2797 53.5097C65.9608 43.7297 66.6977 33.882 63.5425 23.5383C59.7194 10.9736 50.7776 3.16089 46.1023 0.522815C45.1407 -0.0183283 43.9949 0.0380407 43.114 0.579184C38.3811 3.2398 29.4854 10.9455 25.5586 23.3636C24.2171 27.6025 23.5492 31.6893 23.5146 35.7309C25.4089 34.8459 27.3723 34.0962 29.4106 33.4874C29.6351 30.731 30.1879 27.9295 31.0976 25.0377Z" fill="#FF5722"/>
<path d="M77.7699 47.8275C74.8162 44.5299 71.6436 41.8637 68.189 39.7329C67.9932 41.7904 67.6478 43.8422 67.1353 45.8828C69.3463 47.478 71.4306 49.3607 73.417 51.5704C80.1766 59.107 82.3127 67.8554 82.6122 72.6468C78.0981 74.5126 69.1448 76.5306 59.2472 73.9602C50.0982 71.5814 43.2579 66.8577 38.0069 59.2479C39.0836 57.5681 39.2506 55.3979 38.2142 53.5264C36.6884 50.7756 33.1646 49.7553 30.3548 51.2491C27.5451 52.7429 26.5029 56.1927 28.0287 58.9435C29.0306 60.7473 30.8845 61.7845 32.8364 61.8803C38.9051 70.8994 47.0926 76.6659 57.756 79.4336C61.6482 80.4483 65.408 80.8485 68.8914 80.8485C76.9811 80.8485 83.5852 78.6727 86.9074 76.9083C86.988 76.8688 87.0686 76.8181 87.1493 76.7674C88.0014 76.2093 88.462 75.2792 88.439 74.3379C88.5829 68.9941 86.5101 57.5737 77.7699 47.8275Z" fill="#FF5722"/>
<path d="M137.582 49.5246C137.582 56.9991 131.375 63.025 123.792 63.025C116.157 63.025 110.002 56.9991 109.95 49.5753V27.5068H117.073V49.5246C117.073 51.2664 117.786 52.9124 119.059 54.1581C120.331 55.4039 122.013 56.0521 123.792 56.0521C125.571 56.0521 127.2 55.4039 128.473 54.1581C129.745 52.9124 130.407 51.3171 130.459 49.5753H130.407V27.5068H137.53V49.5246H137.582Z" fill="#FF5722"/>
<path d="M175.144 62.4275L155.096 42.0501V62.4275H147.968V27.5068H150.208L169.899 47.0331V27.5068H177.021V62.4275H175.144Z" fill="#FF5722"/>
<path d="M209.743 35.9734C202.822 31.5879 192.389 35.6747 192.389 45.0376C192.389 54.8514 203.433 58.786 210.146 53.803L214.724 58.9325C211.516 61.5255 207.394 63.1151 202.92 63.1151C192.74 63.1151 184.449 54.9923 184.449 45.0319C184.449 35.0659 192.746 26.9487 202.92 26.9487C207.192 26.9487 211.165 28.3918 214.32 30.7875L209.743 35.9734Z" fill="#FF5722"/>
<path d="M238.584 27.5068L255.425 62.4275H247.537L237.357 41.2045L226.314 62.4275H218.322L236.488 27.5068H238.584Z" fill="#FF5722"/>
<path d="M290.386 62.4275L270.337 42.0501V62.4275H263.215V27.5068H265.455L285.146 47.0331V27.5068H292.268V62.4275H290.386Z" fill="#FF5722"/>
<path d="M330.402 62.4275L310.354 42.0501V62.4275H303.231V27.5068H305.471L325.163 47.0331V27.5068H332.285V62.4275H330.402Z" fill="#FF5722"/>
<path d="M370.569 27.5068L358.967 49.6261V62.4275H351.845V49.6261L340.191 27.5068H348.08L355.409 40.6577L362.687 27.5068H370.569Z" fill="#FF5722"/>
</svg>
