<svg width="231" height="51" viewBox="0 0 231 51" fill="none" xmlns="http://www.w3.org/2000/svg">
<path d="M18.1765 46.5297C11.9575 47.9203 6.43041 46.4518 3.66684 45.1744C3.96434 42.1772 5.49846 36.7384 9.88218 32.163C13.929 27.9379 18.603 25.659 24.4133 25.107C25.0298 26.1934 26.1948 26.9329 27.5461 26.9329C29.539 26.9329 31.152 25.337 31.152 23.3731C31.152 21.4056 29.5354 19.8133 27.5461 19.8133C26.2414 19.8133 25.1087 20.5033 24.4743 21.526C17.6281 22.0992 11.9755 24.7921 7.2584 29.7178C1.53054 35.698 0 42.9097 0 46.2254C0 46.9154 0.397868 47.5134 0.97854 47.8071C3.16861 49.0598 7.59534 50.6557 13.0221 50.6557C14.9003 50.6557 16.9004 50.4646 18.9686 50.001C21.5888 49.4172 23.9438 48.5538 26.0944 47.3966C25.0227 46.6571 24.0226 45.8184 23.062 44.9196C21.5601 45.6026 19.94 46.1334 18.1765 46.5297Z" fill="#FF8A50"/>
<path d="M19.0976 15.6271C20.983 9.60798 25.0334 5.61998 27.5281 3.89314C30.0085 5.64475 34.0159 9.67167 35.8439 15.705C37.5322 21.2783 37.1988 26.4128 34.7793 31.6605C33.5176 31.6463 32.2846 32.2727 31.6107 33.4263C30.6143 35.1319 31.2093 37.3081 32.9334 38.2883C34.6611 39.272 36.8655 38.6846 37.8583 36.9825C38.5107 35.8679 38.4713 34.5551 37.887 33.5006C40.8011 27.3611 41.2599 21.1792 39.2957 14.6859C36.9156 6.79833 31.3491 1.89384 28.4385 0.237776C27.8399 -0.101929 27.1266 -0.0665434 26.5782 0.273162C23.6319 1.94338 18.094 6.78064 15.6494 14.5762C14.8142 17.2372 14.3985 19.8027 14.377 22.3398C15.5562 21.7843 16.7785 21.3136 18.0474 20.9315C18.1872 19.2011 18.5313 17.4424 19.0976 15.6271Z" fill="#FF8A50"/>
<path d="M48.1529 29.9337C46.3142 27.8636 44.3392 26.1898 42.1885 24.8523C42.0666 26.1438 41.8516 27.4319 41.5326 28.7129C42.909 29.7143 44.2065 30.8962 45.4431 32.2833C49.6512 37.0144 50.981 42.5063 51.1674 45.5141C48.3573 46.6854 42.7835 47.9522 36.6219 46.3386C30.9263 44.8453 26.6681 41.88 23.3991 37.1029C24.0694 36.0484 24.1733 34.686 23.5281 33.5112C22.5783 31.7844 20.3846 31.1439 18.6354 32.0816C16.8863 33.0193 16.2375 35.185 17.1874 36.9118C17.811 38.0441 18.9652 38.6952 20.1803 38.7554C23.9583 44.4171 29.0553 48.0371 35.6936 49.7746C38.1166 50.4115 40.4573 50.6628 42.6258 50.6628C47.6619 50.6628 51.7732 49.2969 53.8414 48.1893C53.8916 48.1645 53.9417 48.1327 53.9919 48.1008C54.5224 47.7505 54.8092 47.1666 54.7948 46.5757C54.8844 43.2211 53.5941 36.0519 48.1529 29.9337Z" fill="#FF8A50"/>
<path d="M85.388 30.9988C85.388 35.691 81.524 39.4737 76.8034 39.4737C72.0505 39.4737 68.2188 35.691 68.1865 31.0306V17.177H72.6204V30.9988C72.6204 32.0922 73.0649 33.1255 73.857 33.9075C74.6492 34.6896 75.6958 35.0965 76.8034 35.0965C77.911 35.0965 78.9254 34.6896 79.7175 33.9075C80.5097 33.1255 80.9219 32.1241 80.9541 31.0306H80.9219V17.177H85.3558V30.9988H85.388Z" fill="#FF8A50"/>
<path d="M108.772 39.0986L96.291 26.3066V39.0986H91.8535V17.177H93.2478L105.506 29.4347V17.177H109.94V39.0986H108.772Z" fill="#FF8A50"/>
<path d="M130.311 22.492C126.002 19.739 119.507 22.3044 119.507 28.1821C119.507 34.3427 126.382 36.8127 130.562 33.6846L133.411 36.9047C131.415 38.5324 128.848 39.5303 126.063 39.5303C119.726 39.5303 114.564 34.4312 114.564 28.1785C114.564 21.9223 119.73 16.8267 126.063 16.8267C128.723 16.8267 131.196 17.7326 133.16 19.2365L130.311 22.492Z" fill="#FF8A50"/>
<path d="M148.265 17.177L158.749 39.0986H153.839L147.501 25.7758L140.626 39.0986H135.651L146.96 17.177H148.265Z" fill="#FF8A50"/>
<path d="M180.513 39.0986L168.033 26.3066V39.0986H163.599V17.177H164.993L177.252 29.4347V17.177H181.685V39.0986H180.513Z" fill="#FF8A50"/>
<path d="M205.426 39.0986L192.945 26.3066V39.0986H188.511V17.177H189.905L202.164 29.4347V17.177H206.598V39.0986H205.426Z" fill="#FF8A50"/>
<path d="M230.431 17.177L223.208 31.0625V39.0986H218.774V31.0625L211.52 17.177H216.43L220.993 25.4326L225.524 17.177H230.431Z" fill="#FF8A50"/>
</svg>
